<?xml version="1.0" encoding="utf-8"?>
<!-- Generator: Adobe Illustrator 16.0.0, SVG Export Plug-In . SVG Version: 6.00 Build 0)  -->
<!DOCTYPE svg PUBLIC "-//W3C//DTD SVG 1.1//EN" "http://www.w3.org/Graphics/SVG/1.1/DTD/svg11.dtd">
<svg version="1.1" id="Layer_1" xmlns="http://www.w3.org/2000/svg" xmlns:xlink="http://www.w3.org/1999/xlink" x="0px" y="0px"
	 width="28.333px" height="30px" viewBox="0 0 28.333 30" enable-background="new 0 0 28.333 30" xml:space="preserve">
<g>
	<path fill-rule="evenodd" clip-rule="evenodd" fill="#FFFFFF" d="M0.417,16.146c0.201-5.117,2.347-9.047,6.623-11.767
		c1.329-0.845,2.564-0.649,3.235,0.444c0.688,1.12,0.29,2.219-1.063,3.095c-3.388,2.197-5.01,5.355-4.512,9.338
		c0.52,4.156,2.949,6.921,7.008,8.087c4.536,1.304,9.37-1.05,11.266-5.393c1.906-4.37,0.311-9.509-3.727-11.999
		c-0.186-0.116-0.385-0.212-0.568-0.333c-1.033-0.675-1.359-1.895-0.775-2.868c0.59-0.983,1.803-1.303,2.889-0.695
		c3.582,2.004,5.895,5.018,6.795,9.01c1.779,7.86-3.41,15.381-11.428,16.66C8.923,30.882,1.785,25.662,0.65,18.371
		C0.532,17.613,0.487,16.84,0.417,16.146z"/>
	<path fill-rule="evenodd" clip-rule="evenodd" fill="#FFFFFF" d="M16.217,7.983c0,1.873,0.01,3.746-0.002,5.618
		c-0.01,1.288-0.875,2.224-2.041,2.242c-1.185,0.019-2.095-0.951-2.098-2.28c-0.009-3.718-0.008-7.436,0-11.154
		c0.003-1.343,0.87-2.26,2.099-2.252c1.198,0.008,2.031,0.894,2.041,2.209C16.227,4.237,16.217,6.11,16.217,7.983z"/>
</g>
<g>
</g>
<g>
</g>
<g>
</g>
<g>
</g>
<g>
</g>
<g>
</g>
</svg>
