<?xml version="1.0" encoding="utf-8"?>
<!-- Generator: Adobe Illustrator 16.0.0, SVG Export Plug-In . SVG Version: 6.00 Build 0)  -->
<!DOCTYPE svg PUBLIC "-//W3C//DTD SVG 1.1//EN" "http://www.w3.org/Graphics/SVG/1.1/DTD/svg11.dtd">
<svg version="1.1" id="Layer_1" xmlns="http://www.w3.org/2000/svg" xmlns:xlink="http://www.w3.org/1999/xlink" x="0px" y="0px"
	 width="34px" height="29.156px" viewBox="0 0 34 29.156" enable-background="new 0 0 34 29.156" xml:space="preserve">
<g>
	<path fill="#FFFFFF" d="M31.41,4.736H2.674c-1.27,0-2.299-0.983-2.299-2.196s1.029-2.195,2.299-2.195H31.41
		c1.271,0,2.299,0.983,2.299,2.195S32.681,4.736,31.41,4.736z"/>
</g>
<g>
	<path fill="#FFFFFF" d="M31.41,16.775H2.674c-1.27,0-2.299-0.984-2.299-2.197s1.029-2.195,2.299-2.195H31.41
		c1.271,0,2.299,0.983,2.299,2.195S32.681,16.775,31.41,16.775z"/>
</g>
<g>
	<path fill="#FFFFFF" d="M24.035,28.812H2.674c-1.27,0-2.299-0.982-2.299-2.195c0-1.211,1.029-2.195,2.299-2.195h21.361
		c1.271,0,2.299,0.984,2.299,2.195C26.334,27.829,25.306,28.812,24.035,28.812z"/>
</g>
<g>
</g>
<g>
</g>
<g>
</g>
<g>
</g>
<g>
</g>
<g>
</g>
</svg>
