<?xml version="1.0" encoding="utf-8"?>
<!-- Generator: Adobe Illustrator 16.0.0, SVG Export Plug-In . SVG Version: 6.00 Build 0)  -->
<!DOCTYPE svg PUBLIC "-//W3C//DTD SVG 1.1//EN" "http://www.w3.org/Graphics/SVG/1.1/DTD/svg11.dtd">
<svg version="1.1" id="Layer_1" xmlns="http://www.w3.org/2000/svg" xmlns:xlink="http://www.w3.org/1999/xlink" x="0px" y="0px"
	 width="17.667px" height="11.25px" viewBox="0 0 17.667 11.25" enable-background="new 0 0 17.667 11.25" xml:space="preserve">
<g>
	<g>
		<path fill="#FFFFFF" d="M8.829,11.135c-0.526,0-1.051-0.206-1.444-0.615L0.661,3.509C-0.104,2.712-0.077,1.446,0.72,0.682
			c0.798-0.766,2.064-0.738,2.828,0.059l6.724,7.01c0.765,0.798,0.738,2.063-0.059,2.828C9.825,10.951,9.326,11.135,8.829,11.135z"
			/>
	</g>
	<g>
		<path fill="#FFFFFF" d="M8.829,11.135c-0.526,0-1.051-0.206-1.444-0.615L0.661,3.509C-0.104,2.712-0.077,1.446,0.72,0.682
			c0.798-0.766,2.064-0.738,2.828,0.059l6.724,7.01c0.765,0.798,0.738,2.063-0.059,2.828C9.825,10.951,9.326,11.135,8.829,11.135z"
			/>
	</g>
	<g>
		<path fill="#FFFFFF" d="M8.828,11.135c-0.498,0-0.996-0.185-1.384-0.557C6.646,9.814,6.62,8.548,7.385,7.75l6.724-7.01
			c0.765-0.798,2.032-0.824,2.828-0.059c0.797,0.765,0.823,2.031,0.059,2.828l-6.724,7.011C9.879,10.929,9.354,11.135,8.828,11.135z
			"/>
	</g>
</g>
</svg>
