<?xml version="1.0" encoding="utf-8"?>
<!-- Generator: Adobe Illustrator 16.0.0, SVG Export Plug-In . SVG Version: 6.00 Build 0)  -->
<!DOCTYPE svg PUBLIC "-//W3C//DTD SVG 1.1//EN" "http://www.w3.org/Graphics/SVG/1.1/DTD/svg11.dtd">
<svg version="1.1" id="Layer_1" xmlns="http://www.w3.org/2000/svg" xmlns:xlink="http://www.w3.org/1999/xlink" x="0px" y="0px"
	 width="16.333px" height="22.417px" viewBox="0 0 16.333 22.417" enable-background="new 0 0 16.333 22.417" xml:space="preserve">
<g>
	<g>
		<path fill="#CA1C1D" d="M15.077,8.104c0,5.811-6.91,13.09-6.91,13.09s-6.91-7.318-6.91-13.09c0-3.816,3.094-6.91,6.91-6.91
			S15.077,4.288,15.077,8.104z"/>
		<path fill="#FFFFFF" d="M8.167,22.194c-0.285,0.033-0.538-0.113-0.727-0.313C7.146,21.57,0.256,14.203,0.256,8.104
			c0-4.362,3.548-7.91,7.91-7.91c4.361,0,7.91,3.548,7.91,7.91c0,6.139-6.892,13.47-7.185,13.778
			C8.703,22.082,8.441,22.194,8.167,22.194z M8.167,2.194c-3.259,0-5.91,2.651-5.91,5.91c0,4.242,4.189,9.572,5.912,11.585
			c1.722-2.007,5.909-7.322,5.909-11.585C14.077,4.845,11.425,2.194,8.167,2.194z"/>
	</g>
	<g>
		<circle fill="#FFFFFF" cx="8.167" cy="8.195" r="2.999"/>
	</g>
</g>
</svg>
