<?xml version="1.0" encoding="utf-8"?>
<!-- Generator: Adobe Illustrator 16.0.0, SVG Export Plug-In . SVG Version: 6.00 Build 0)  -->
<!DOCTYPE svg PUBLIC "-//W3C//DTD SVG 1.1//EN" "http://www.w3.org/Graphics/SVG/1.1/DTD/svg11.dtd">
<svg version="1.1" id="Layer_1" xmlns="http://www.w3.org/2000/svg" xmlns:xlink="http://www.w3.org/1999/xlink" x="0px" y="0px"
	 width="125.5px" height="82.5px" viewBox="0 0 125.5 82.5" enable-background="new 0 0 125.5 82.5" xml:space="preserve">
<g>
	<g>
		<path fill="#FFFFFF" d="M66.654,80.17H25.04c-0.829,0-1.5-0.672-1.5-1.5V30.969c0-0.374,0.14-0.734,0.392-1.011l2.666-2.924
			c0.284-0.312,0.687-0.489,1.108-0.489h6.82c0.829,0,1.5,0.672,1.5,1.5s-0.671,1.5-1.5,1.5h-6.158L26.54,31.55v45.62h38.615V31.55
			l-1.83-2.005h-6.326c-0.829,0-1.5-0.672-1.5-1.5s0.671-1.5,1.5-1.5h6.988c0.422,0,0.824,0.178,1.108,0.489l2.668,2.924
			c0.253,0.276,0.392,0.637,0.392,1.011V78.67C68.154,79.498,67.483,80.17,66.654,80.17z"/>
	</g>
	<g>
		<path fill="#FFFFFF" d="M50.446,29.045h-9.25c-0.552,0-1-0.447-1-1s0.448-1,1-1h9.25c0.552,0,1,0.447,1,1
			S50.998,29.045,50.446,29.045z"/>
	</g>
	<g>
		<g>
			<path fill="#FFFFFF" d="M37.61,42.99c-0.162,0-0.325-0.026-0.482-0.08c-0.497-0.168-0.869-0.584-0.982-1.097l-3.084-13.977
				c-0.089-0.405-0.007-0.829,0.228-1.171l3.416-4.986c0.294-0.43,0.792-0.669,1.311-0.65c0.52,0.025,0.99,0.318,1.241,0.775
				l2.992,5.439l4.694,6.557c0.456,0.637,0.345,1.518-0.255,2.021l-8.113,6.816C38.3,42.869,37.958,42.99,37.61,42.99z
				 M36.131,27.825l2.41,10.924l5.154-4.331l-3.938-5.5c-0.034-0.048-0.066-0.099-0.095-0.15l-1.86-3.382L36.131,27.825z"/>
		</g>
		<g>
			<path fill="#FFFFFF" d="M53.915,42.99c-0.348,0-0.69-0.121-0.965-0.352l-8.113-6.816c-0.577-0.484-0.705-1.322-0.298-1.957
				l7.779-12.146c0.271-0.424,0.737-0.684,1.24-0.691c0.487,0.012,0.976,0.237,1.261,0.652l3.418,4.986
				c0.234,0.342,0.317,0.766,0.228,1.171l-3.084,13.977c-0.113,0.513-0.486,0.929-0.982,1.097
				C54.239,42.964,54.077,42.99,53.915,42.99z M47.775,34.373l5.208,4.376l2.41-10.924l-1.771-2.583L47.775,34.373z"/>
		</g>
	</g>
	<g>
		<path fill="#FFFFFF" d="M53.286,23.835H38.161c-0.829,0-1.5-0.672-1.5-1.5s0.671-1.5,1.5-1.5h15.125c0.829,0,1.5,0.672,1.5,1.5
			S54.114,23.835,53.286,23.835z"/>
	</g>
</g>
<g>
	<g>
		<g>
			<g>
				<g>
					<path fill="#DD584C" d="M48.581,71.656c0,1.344-1.122,2.438-2.498,2.438c-1.38,0-2.502-1.095-2.502-2.438
						c0-1.35,1.122-2.444,2.502-2.444C47.458,69.212,48.581,70.307,48.581,71.656z"/>
				</g>
			</g>
		</g>
	</g>
	<g>
		<g>
			<g>
				<g>
					<path fill="#DD584C" d="M48.581,56.967c0,1.344-1.122,2.439-2.498,2.439c-1.38,0-2.502-1.096-2.502-2.439
						c0-1.35,1.122-2.443,2.502-2.443C47.458,54.523,48.581,55.617,48.581,56.967z"/>
				</g>
			</g>
		</g>
	</g>
	<g>
		<g>
			<g>
				<g>
					<path fill="#DD584C" d="M48.581,42.278c0,1.344-1.122,2.438-2.498,2.438c-1.38,0-2.502-1.095-2.502-2.438
						c0-1.35,1.122-2.444,2.502-2.444C47.458,39.834,48.581,40.929,48.581,42.278z"/>
				</g>
			</g>
		</g>
	</g>
</g>
<g>
	<g>
		<path fill="#FFFFFF" d="M2.905,48.827c-0.55,0.007-0.997,0.368-0.997,0.817c0,0.45,0.447,0.812,0.997,0.817l0,0h11.107v-1.637
			H2.905V48.827z"/>
		<path fill="#FFFFFF" d="M14.012,51.212H2.905c-0.983-0.011-1.747-0.699-1.747-1.567c0-0.867,0.763-1.556,1.738-1.567l11.117-0.002
			c0.199,0,0.39,0.079,0.53,0.22s0.22,0.331,0.22,0.53v1.637C14.762,50.876,14.426,51.212,14.012,51.212z M2.668,49.665
			c0.036,0,0.119,0.046,0.244,0.047h10.35v-0.137H2.905c-0.136,0.002-0.226,0.064-0.249,0.094
			C2.659,49.666,2.663,49.665,2.668,49.665z"/>
	</g>
	<g>
		<path fill="#FFFFFF" d="M2.905,18.647c-0.55,0.006-0.995,0.369-0.995,0.818c0,0.448,0.445,0.812,0.995,0.816v0.001l11.107,0.001
			v-1.639H2.905V18.647z"/>
		<path fill="#FFFFFF" d="M14.012,21.034L14.012,21.034L2.905,21.033c-0.982-0.011-1.745-0.699-1.745-1.567
			c0-0.869,0.763-1.558,1.737-1.568l11.115-0.002c0.199,0,0.39,0.079,0.53,0.22s0.22,0.331,0.22,0.53v1.639
			c0,0.199-0.079,0.39-0.22,0.53S14.211,21.034,14.012,21.034z M2.67,19.485c0.034,0,0.117,0.046,0.242,0.047l10.351,0.002v-0.139
			H2.905c-0.137,0.002-0.226,0.065-0.248,0.093C2.66,19.486,2.665,19.485,2.67,19.485z"/>
	</g>
	<g>
		<path fill="#FFFFFF" d="M2.905,79.007c-0.552,0.004-0.997,0.366-0.997,0.814c0,0.451,0.445,0.813,0.997,0.817v0.002l11.107,0.001
			v-1.639H2.905V79.007z"/>
		<path fill="#FFFFFF" d="M14.012,81.392L14.012,81.392L2.905,81.391c-0.984-0.012-1.747-0.701-1.747-1.569
			c0-0.842,0.716-1.512,1.646-1.562c0.033-0.005,0.066-0.007,0.101-0.007h11.107c0.414,0,0.75,0.336,0.75,0.75v1.639
			c0,0.199-0.079,0.39-0.22,0.53S14.211,81.392,14.012,81.392z M2.668,79.843c0.034,0,0.116,0.045,0.244,0.046l10.351,0.003v-0.139
			H2.981c-0.171,0.014-0.303,0.062-0.327,0.094C2.657,79.844,2.662,79.843,2.668,79.843z"/>
	</g>
	<g>
		<path fill="#FFFFFF" d="M8.198,54.862c-0.551,0.006-0.996,0.369-0.996,0.818c0,0.448,0.445,0.81,0.996,0.816V56.5h5.814v-1.64
			H8.198V54.862z"/>
		<path fill="#FFFFFF" d="M14.012,57.25H8.198c-0.031,0-0.063-0.002-0.093-0.006c-0.934-0.049-1.653-0.723-1.653-1.563
			c0-0.869,0.764-1.558,1.738-1.568l5.822-0.002h0c0.199,0,0.39,0.079,0.53,0.22s0.22,0.331,0.22,0.53v1.64
			C14.762,56.914,14.426,57.25,14.012,57.25z M8.264,55.75h4.998v-0.14H8.198c-0.138,0.002-0.227,0.065-0.249,0.094
			c0.018-0.022,0.108,0.041,0.258,0.043C8.227,55.747,8.246,55.748,8.264,55.75z"/>
	</g>
	<g>
		<path fill="#FFFFFF" d="M8.198,60.899c-0.551,0.005-0.996,0.369-0.996,0.816s0.445,0.812,0.996,0.816v0.002h5.814v-1.639H8.198
			V60.899z"/>
		<path fill="#FFFFFF" d="M14.012,63.284H8.198c-0.983-0.012-1.746-0.701-1.746-1.568c0-0.841,0.715-1.513,1.644-1.563
			c0.033-0.005,0.067-0.007,0.102-0.007h5.814c0.414,0,0.75,0.336,0.75,0.75v1.639C14.762,62.948,14.426,63.284,14.012,63.284z
			 M7.963,61.735c0.035,0,0.118,0.046,0.242,0.047l5.058,0.002v-0.139H8.274c-0.161,0.016-0.297,0.061-0.324,0.094
			C7.953,61.736,7.958,61.735,7.963,61.735z"/>
	</g>
	<g>
		<path fill="#FFFFFF" d="M8.198,66.935c-0.551,0.006-0.996,0.367-0.996,0.815c0,0.451,0.445,0.813,0.996,0.818v0.003h5.814v-1.639
			H8.198V66.935z"/>
		<path fill="#FFFFFF" d="M14.012,69.321H8.198c-0.031,0-0.062-0.002-0.092-0.006c-0.934-0.047-1.654-0.722-1.654-1.565
			c0-0.867,0.764-1.555,1.738-1.565l5.822-0.002h0c0.199,0,0.39,0.079,0.53,0.22s0.22,0.331,0.22,0.53v1.639
			C14.762,68.985,14.426,69.321,14.012,69.321z M8.264,67.821h4.998v-0.139H8.198c-0.14,0.002-0.228,0.064-0.249,0.093
			c0.021-0.017,0.11,0.042,0.257,0.043C8.226,67.818,8.245,67.819,8.264,67.821z"/>
	</g>
	<g>
		<path fill="#FFFFFF" d="M8.198,72.972c-0.551,0.004-0.996,0.368-0.996,0.816c0,0.447,0.445,0.812,0.996,0.816v0.002h5.814V72.97
			H8.198V72.972z"/>
		<path fill="#FFFFFF" d="M14.012,75.356H8.198c-0.983-0.012-1.746-0.701-1.746-1.568c0-0.856,0.781-1.56,1.741-1.566l5.819-0.002h0
			c0.199,0,0.39,0.079,0.53,0.22s0.22,0.331,0.22,0.53v1.637C14.762,75.021,14.426,75.356,14.012,75.356z M7.962,73.808
			c0.035,0,0.117,0.046,0.242,0.047l5.058,0.002V73.72H8.198c-0.138,0.002-0.225,0.063-0.248,0.092
			C7.953,73.809,7.957,73.808,7.962,73.808z"/>
	</g>
	<g>
		<path fill="#FFFFFF" d="M8.198,24.685C7.647,24.688,7.2,25.052,7.2,25.501s0.447,0.813,0.998,0.816v0.002h5.814v-1.637
			l-5.814-0.001V24.685z"/>
		<path fill="#FFFFFF" d="M14.012,27.069H8.198C7.214,27.059,6.45,26.37,6.45,25.501c0-0.832,0.737-1.519,1.66-1.564
			c0.029-0.003,0.059-0.005,0.088-0.005l0,0l5.814,0.001c0.414,0,0.75,0.336,0.75,0.75v1.637
			C14.762,26.733,14.426,27.069,14.012,27.069z M7.96,25.521c0.035,0,0.118,0.046,0.243,0.047l5.059,0.002v-0.137l-4.998-0.001
			c-0.162,0.015-0.291,0.061-0.316,0.093C7.951,25.521,7.955,25.521,7.96,25.521z"/>
	</g>
	<g>
		<path fill="#FFFFFF" d="M8.198,30.72C7.647,30.726,7.2,31.089,7.2,31.539c0,0.447,0.447,0.809,0.998,0.814v0.002l5.814,0.001
			v-1.639H8.198V30.72z"/>
		<path fill="#FFFFFF" d="M14.012,33.106L14.012,33.106l-5.814-0.001c-0.985-0.014-1.748-0.702-1.748-1.566
			c0-0.869,0.764-1.559,1.74-1.569l5.822-0.002h0c0.199,0,0.39,0.079,0.53,0.22s0.22,0.331,0.22,0.53v1.639
			c0,0.199-0.079,0.39-0.22,0.53S14.211,33.106,14.012,33.106z M7.961,31.558c0.035,0,0.118,0.045,0.244,0.046l5.057,0.003v-0.139
			H8.198c-0.137,0.002-0.227,0.064-0.25,0.094C7.951,31.559,7.956,31.558,7.961,31.558z"/>
	</g>
	<g>
		<path fill="#FFFFFF" d="M8.198,36.755c-0.551,0.007-0.996,0.369-0.996,0.818s0.445,0.811,0.996,0.817v0.001h5.814v-1.639H8.198
			V36.755z"/>
		<path fill="#FFFFFF" d="M14.012,39.142H8.198c-0.984-0.014-1.746-0.703-1.746-1.568c0-0.867,0.763-1.557,1.737-1.568l5.823-0.002
			h0c0.199,0,0.39,0.079,0.53,0.22s0.22,0.331,0.22,0.53v1.639C14.762,38.806,14.426,39.142,14.012,39.142z M7.962,37.593
			c0.034,0,0.117,0.046,0.245,0.048l5.055,0.001v-0.139H8.198c-0.139,0.002-0.228,0.066-0.249,0.095
			C7.952,37.595,7.956,37.593,7.962,37.593z"/>
	</g>
	<g>
		<path fill="#FFFFFF" d="M8.198,42.79c-0.551,0.006-0.996,0.369-0.996,0.819c0,0.448,0.445,0.81,0.996,0.815v0.003h5.814v-1.64
			H8.198V42.79z"/>
		<path fill="#FFFFFF" d="M14.012,45.178H8.198c-0.031,0-0.062-0.002-0.092-0.006c-0.934-0.047-1.654-0.72-1.654-1.563
			c0-0.869,0.764-1.559,1.738-1.569l5.822-0.002h0c0.199,0,0.39,0.079,0.53,0.22s0.22,0.331,0.22,0.53v1.64
			C14.762,44.842,14.426,45.178,14.012,45.178z M8.264,43.678h4.998v-0.14H8.198c-0.139,0.002-0.228,0.066-0.249,0.094
			c0.022-0.023,0.108,0.041,0.256,0.043C8.226,43.675,8.245,43.676,8.264,43.678z"/>
	</g>
</g>
<g>
	<g>
		<path fill="#DD584C" d="M42.364,2.856c-0.008-0.549-0.381-0.996-0.847-0.996s-0.841,0.447-0.847,0.996l0,0v11.107h1.695V2.856
			H42.364z"/>
		<path fill="#DD584C" d="M42.366,14.714H40.67c-0.414,0-0.75-0.336-0.75-0.75V2.856c0.01-0.967,0.727-1.746,1.597-1.746
			c0.881,0,1.583,0.763,1.597,1.735l0.002,11.118c0,0.199-0.079,0.39-0.22,0.53S42.564,14.714,42.366,14.714z M41.42,13.214h0.195
			V2.856c-0.003-0.152-0.085-0.238-0.108-0.248c-0.004,0.01-0.086,0.094-0.087,0.256V13.214z"/>
	</g>
	<g>
		<path fill="#DD584C" d="M73.625,2.856c-0.006-0.549-0.383-0.994-0.848-0.994c-0.463,0-0.84,0.445-0.844,0.994H71.93v11.107h1.699
			V2.856H73.625z"/>
		<path fill="#DD584C" d="M73.629,14.714H71.93c-0.414,0-0.75-0.336-0.75-0.75V2.856c0-0.03,0.002-0.062,0.006-0.091
			c0.047-0.919,0.746-1.653,1.592-1.653s1.545,0.733,1.596,1.651c0.004,0.03,0.006,0.062,0.006,0.093v11.107
			C74.379,14.378,74.043,14.714,73.629,14.714z M72.68,13.214h0.199V2.923c-0.002-0.02-0.003-0.039-0.004-0.059
			c-0.001-0.162-0.082-0.244-0.105-0.253c-0.005,0.009-0.086,0.091-0.086,0.25c0,0.021-0.002,0.042-0.004,0.062V13.214z"/>
	</g>
	<g>
		<path fill="#DD584C" d="M11.102,2.856c-0.004-0.551-0.379-0.996-0.844-0.996c-0.468,0-0.841,0.445-0.847,0.996H9.41L9.409,13.964
			h1.697V2.856H11.102z"/>
		<path fill="#DD584C" d="M11.106,14.714H9.409c-0.199,0-0.39-0.079-0.53-0.22s-0.22-0.331-0.22-0.53L8.66,2.856
			C8.673,1.873,9.376,1.11,10.258,1.11c0.842,0,1.538,0.729,1.591,1.644c0.004,0.033,0.007,0.067,0.007,0.103v11.107
			C11.856,14.378,11.52,14.714,11.106,14.714z M10.159,13.214h0.197V2.933c-0.002-0.023-0.004-0.047-0.004-0.071
			c-0.001-0.16-0.081-0.243-0.103-0.253c-0.006,0.01-0.086,0.093-0.087,0.256L10.159,13.214z"/>
	</g>
	<g>
		<path fill="#DD584C" d="M4.851,8.149C4.844,7.599,4.467,7.153,4.005,7.153c-0.466,0-0.842,0.445-0.847,0.996H3.157v5.814h1.698
			V8.149H4.851z"/>
		<path fill="#DD584C" d="M4.855,14.714H3.157c-0.414,0-0.75-0.336-0.75-0.75V8.149c0.012-0.983,0.714-1.746,1.599-1.746
			c0.838,0,1.535,0.727,1.592,1.64c0.005,0.034,0.008,0.07,0.008,0.106v5.814C5.605,14.378,5.269,14.714,4.855,14.714z
			 M3.907,13.214h0.198V8.226C4.103,8.204,4.102,8.182,4.101,8.159C4.099,8.006,4.025,7.914,3.995,7.901
			C3.991,7.911,3.91,7.993,3.909,8.156L3.907,13.214z"/>
	</g>
	<g>
		<path fill="#DD584C" d="M36.112,8.149c-0.006-0.551-0.382-0.996-0.848-0.996c-0.465,0-0.838,0.445-0.846,0.996h-0.003v5.814h1.698
			V8.149H36.112z"/>
		<path fill="#DD584C" d="M36.114,14.714h-1.698c-0.414,0-0.75-0.336-0.75-0.75V8.149c0-0.032,0.002-0.063,0.006-0.095
			c0.052-0.933,0.737-1.651,1.593-1.651c0.885,0,1.587,0.764,1.598,1.738l0.002,5.822c0,0.198-0.079,0.39-0.22,0.53
			S36.313,14.714,36.114,14.714z M35.166,13.214h0.198V8.149c-0.002-0.154-0.084-0.238-0.107-0.247
			c-0.013,0.012-0.086,0.104-0.088,0.258c0,0.019-0.001,0.037-0.003,0.056V13.214z"/>
	</g>
	<g>
		<path fill="#DD584C" d="M29.859,8.149c-0.006-0.551-0.384-0.996-0.846-0.996c-0.464,0-0.841,0.445-0.846,0.996h-0.002v5.814h1.697
			V8.149H29.859z"/>
		<path fill="#DD584C" d="M29.863,14.714h-1.697c-0.414,0-0.75-0.336-0.75-0.75V8.149c0.012-0.967,0.729-1.746,1.598-1.746
			c0.84,0,1.537,0.728,1.592,1.641c0.005,0.034,0.007,0.069,0.007,0.105v5.814C30.613,14.378,30.277,14.714,29.863,14.714z
			 M28.916,13.214h0.197V8.226c-0.002-0.022-0.003-0.045-0.004-0.068c-0.001-0.162-0.083-0.246-0.106-0.256
			C29,7.911,28.919,7.994,28.917,8.156L28.916,13.214z"/>
	</g>
	<g>
		<path fill="#DD584C" d="M23.607,8.149c-0.006-0.551-0.381-0.996-0.846-0.996c-0.467,0-0.841,0.445-0.848,0.996h-0.002v5.814h1.697
			V8.149H23.607z"/>
		<path fill="#DD584C" d="M23.609,14.714h-1.697c-0.414,0-0.75-0.336-0.75-0.75V8.149c0.016-0.984,0.718-1.746,1.6-1.746
			c0.884,0,1.585,0.764,1.596,1.738l0.002,5.822c0,0.198-0.079,0.39-0.22,0.53S23.808,14.714,23.609,14.714z M22.662,13.214h0.197
			V8.149c-0.002-0.154-0.083-0.238-0.106-0.247c-0.006,0.009-0.087,0.092-0.089,0.257L22.662,13.214z"/>
	</g>
	<g>
		<path fill="#DD584C" d="M17.353,8.149c-0.004-0.551-0.381-0.996-0.846-0.996c-0.463,0-0.841,0.445-0.846,0.996H15.66v5.814h1.695
			V8.149H17.353z"/>
		<path fill="#DD584C" d="M17.355,14.714H15.66c-0.414,0-0.75-0.336-0.75-0.75V8.149c0.012-0.967,0.729-1.746,1.598-1.746
			c0.873,0,1.589,0.781,1.596,1.741l0.002,5.819c0,0.198-0.079,0.39-0.22,0.53S17.554,14.714,17.355,14.714z M16.41,13.214h0.195
			V8.149c-0.001-0.155-0.083-0.238-0.106-0.247c-0.005,0.009-0.086,0.092-0.087,0.254L16.41,13.214z"/>
	</g>
	<g>
		<path fill="#DD584C" d="M67.371,8.149c-0.004-0.551-0.379-0.998-0.846-0.998c-0.465,0-0.842,0.447-0.846,0.998h-0.002v5.814h1.695
			l0.002-5.814H67.371z"/>
		<path fill="#DD584C" d="M67.373,14.714h-1.695c-0.414,0-0.75-0.336-0.75-0.75V8.149c0.011-0.968,0.728-1.748,1.598-1.748
			c0.847,0,1.546,0.736,1.594,1.658c0.004,0.03,0.006,0.06,0.006,0.09l-0.002,5.814C68.123,14.378,67.787,14.714,67.373,14.714z
			 M66.429,13.214h0.194l0.002-4.998c-0.002-0.02-0.004-0.04-0.004-0.06c-0.001-0.163-0.082-0.247-0.104-0.257
			c-0.005,0.01-0.085,0.093-0.087,0.255L66.429,13.214z"/>
	</g>
	<g>
		<path fill="#DD584C" d="M61.12,8.149c-0.006-0.551-0.382-0.998-0.849-0.998c-0.463,0-0.837,0.447-0.844,0.998h-0.002l-0.001,5.814
			h1.697V8.149H61.12z"/>
		<path fill="#DD584C" d="M61.122,14.714h-1.697c-0.199,0-0.39-0.079-0.53-0.22s-0.22-0.331-0.22-0.53l0.001-5.814
			c0.016-0.985,0.716-1.748,1.596-1.748c0.871,0,1.588,0.78,1.599,1.74l0.002,5.822c0,0.198-0.079,0.39-0.22,0.53
			S61.32,14.714,61.122,14.714z M60.175,13.214h0.197V8.149c-0.002-0.156-0.085-0.24-0.108-0.249
			c-0.011,0.012-0.084,0.105-0.086,0.259L60.175,13.214z"/>
	</g>
	<g>
		<path fill="#DD584C" d="M85.824,8.149c-0.004-0.551-0.381-0.998-0.846-0.998s-0.842,0.447-0.846,0.998h-0.002v5.814h1.695
			l0.002-5.814H85.824z"/>
		<path fill="#DD584C" d="M85.826,14.714h-1.695c-0.414,0-0.75-0.336-0.75-0.75V8.149c0.011-0.968,0.728-1.748,1.598-1.748
			c0.847,0,1.546,0.736,1.594,1.658c0.004,0.03,0.006,0.06,0.006,0.09l-0.002,5.814C86.576,14.378,86.24,14.714,85.826,14.714z
			 M84.882,13.214h0.194l0.002-4.998c-0.002-0.02-0.004-0.04-0.004-0.06c-0.001-0.163-0.082-0.247-0.105-0.257
			c-0.004,0.01-0.084,0.093-0.086,0.255L84.882,13.214z"/>
	</g>
	<g>
		<path fill="#DD584C" d="M79.572,8.149c-0.006-0.551-0.383-0.998-0.848-0.998s-0.838,0.447-0.844,0.998h-0.002l-0.002,5.814h1.697
			V8.149H79.572z"/>
		<path fill="#DD584C" d="M79.574,14.714h-1.697c-0.198,0-0.389-0.079-0.529-0.22s-0.221-0.331-0.221-0.53l0.002-5.814
			c0.016-0.985,0.716-1.748,1.596-1.748c0.871,0,1.588,0.78,1.598,1.74l0.002,5.822c0,0.198-0.078,0.39-0.219,0.53
			S79.773,14.714,79.574,14.714z M78.628,13.214h0.196V8.149c-0.002-0.155-0.085-0.24-0.108-0.249
			c-0.011,0.012-0.083,0.105-0.085,0.259L78.628,13.214z"/>
	</g>
	<g>
		<path fill="#DD584C" d="M54.869,8.149c-0.008-0.551-0.383-0.996-0.848-0.996c-0.466,0-0.84,0.445-0.847,0.996h-0.001v5.814h1.697
			V8.149H54.869z"/>
		<path fill="#DD584C" d="M54.871,14.714h-1.697c-0.414,0-0.75-0.336-0.75-0.75V8.149c0.014-0.983,0.716-1.746,1.598-1.746
			s1.584,0.763,1.598,1.735l0.002,5.825c0,0.198-0.079,0.39-0.22,0.53S55.069,14.714,54.871,14.714z M53.923,13.214h0.197V8.149
			c-0.003-0.153-0.085-0.238-0.108-0.247c-0.005,0.009-0.086,0.093-0.088,0.257L53.923,13.214z"/>
	</g>
	<g>
		<path fill="#DD584C" d="M48.617,8.149c-0.005-0.551-0.382-0.996-0.848-0.996c-0.465,0-0.84,0.445-0.846,0.996h-0.002v5.814h1.697
			V8.149H48.617z"/>
		<path fill="#DD584C" d="M48.619,14.714h-1.697c-0.414,0-0.75-0.336-0.75-0.75V8.149c0.014-0.983,0.716-1.746,1.598-1.746
			c0.873,0,1.589,0.78,1.598,1.739l0.002,5.821c0,0.198-0.079,0.39-0.22,0.53S48.817,14.714,48.619,14.714z M47.672,13.214h0.197
			V8.149c-0.002-0.155-0.084-0.238-0.107-0.247c-0.006,0.009-0.087,0.093-0.088,0.255L47.672,13.214z"/>
	</g>
</g>
<g>
	<g>
		<path fill="#DD584C" d="M104.887,2.856c-0.008-0.549-0.381-0.996-0.846-0.996c-0.467,0-0.842,0.447-0.848,0.996l0,0v11.107h1.695
			V2.856H104.887z"/>
		<path fill="#DD584C" d="M104.889,14.714h-1.695c-0.414,0-0.75-0.336-0.75-0.75V2.856c0.011-0.967,0.728-1.746,1.598-1.746
			c0.881,0,1.582,0.763,1.596,1.735l0.002,11.118c0,0.199-0.078,0.39-0.219,0.53S105.088,14.714,104.889,14.714z M103.943,13.214
			h0.195V2.856c-0.002-0.142-0.076-0.235-0.107-0.248c-0.004,0.01-0.086,0.093-0.088,0.256V13.214z"/>
	</g>
	<g>
		<path fill="#DD584C" d="M98.635,8.149c-0.006-0.551-0.381-0.996-0.848-0.996c-0.465,0-0.838,0.445-0.846,0.996h-0.002v5.814h1.697
			V8.149H98.635z"/>
		<path fill="#DD584C" d="M98.637,14.714h-1.697c-0.414,0-0.75-0.336-0.75-0.75V8.149c0.018-0.985,0.72-1.746,1.598-1.746
			c0.886,0,1.588,0.764,1.598,1.738l0.002,5.822c0,0.198-0.078,0.39-0.219,0.53S98.836,14.714,98.637,14.714z M97.69,13.214h0.196
			V8.149c-0.002-0.155-0.084-0.238-0.106-0.247c-0.013,0.012-0.087,0.104-0.089,0.258L97.69,13.214z"/>
	</g>
	<g>
		<path fill="#DD584C" d="M92.383,8.149c-0.006-0.551-0.385-0.996-0.846-0.996c-0.465,0-0.842,0.445-0.846,0.996h-0.002v5.814h1.697
			V8.149H92.383z"/>
		<path fill="#DD584C" d="M92.387,14.714h-1.697c-0.414,0-0.75-0.336-0.75-0.75V8.149c0.011-0.967,0.728-1.746,1.598-1.746
			c0.84,0,1.537,0.728,1.593,1.641c0.005,0.034,0.007,0.069,0.007,0.105v5.814C93.137,14.378,92.801,14.714,92.387,14.714z
			 M91.44,13.214h0.196V8.226c-0.002-0.022-0.003-0.045-0.004-0.068c-0.001-0.162-0.084-0.246-0.106-0.256
			c-0.003,0.01-0.083,0.092-0.085,0.253L91.44,13.214z"/>
	</g>
	<g>
		<path fill="#DD584C" d="M123.643,8.149c-0.006-0.551-0.381-0.998-0.848-0.998c-0.463,0-0.838,0.447-0.844,0.998h-0.002
			l-0.002,5.814h1.697V8.149H123.643z"/>
		<path fill="#DD584C" d="M123.645,14.714h-1.697c-0.198,0-0.389-0.079-0.529-0.22s-0.221-0.332-0.221-0.53l0.002-5.814
			c0.014-0.985,0.715-1.748,1.596-1.748c0.886,0,1.588,0.765,1.598,1.74l0.002,5.822c0,0.198-0.078,0.39-0.219,0.53
			S123.844,14.714,123.645,14.714z M122.698,13.214h0.196V8.149c-0.002-0.155-0.084-0.24-0.107-0.249
			c-0.01,0.012-0.084,0.104-0.086,0.257L122.698,13.214z"/>
	</g>
	<g>
		<path fill="#DD584C" d="M117.393,8.149c-0.008-0.551-0.383-0.996-0.848-0.996c-0.467,0-0.84,0.445-0.848,0.996l0,0v5.814h1.697
			V8.149H117.393z"/>
		<path fill="#DD584C" d="M117.395,14.714h-1.697c-0.414,0-0.75-0.336-0.75-0.75V8.149c0.014-0.983,0.717-1.746,1.598-1.746
			c0.883,0,1.584,0.763,1.598,1.735l0.002,5.825c0,0.198-0.078,0.39-0.219,0.53S117.594,14.714,117.395,14.714z M116.447,13.214
			h0.197V8.149c-0.002-0.153-0.085-0.238-0.107-0.247c-0.006,0.009-0.087,0.093-0.09,0.258V13.214z"/>
	</g>
	<g>
		<path fill="#DD584C" d="M111.141,8.149c-0.006-0.551-0.383-0.996-0.848-0.996s-0.84,0.445-0.846,0.996h-0.002v5.814h1.697V8.149
			H111.141z"/>
		<path fill="#DD584C" d="M111.143,14.714h-1.697c-0.414,0-0.75-0.336-0.75-0.75V8.149c0.014-0.983,0.717-1.746,1.598-1.746
			c0.871,0,1.588,0.779,1.598,1.738l0.002,5.822c0,0.198-0.078,0.39-0.219,0.53S111.342,14.714,111.143,14.714z M110.196,13.214
			h0.196V8.149c-0.002-0.154-0.084-0.238-0.107-0.247c-0.006,0.009-0.086,0.093-0.088,0.255L110.196,13.214z"/>
	</g>
</g>
<g>
	<g>
		<path fill="#FFFFFF" d="M78.977,64.688c-0.095,0.285-0.254,0.587-0.472,0.902c-0.221,0.314-0.473,0.644-0.759,0.987
			c-0.574,0.688-1.214,1.414-1.92,2.177c-0.707,0.765-1.442,1.538-2.206,2.321l-1.919-1.919c0.859-0.821,1.661-1.624,2.407-2.407
			c0.743-0.782,1.422-1.575,2.033-2.377c0.571-0.745,0.954-1.48,1.146-2.206c0.19-0.726,0.286-1.499,0.286-2.32v-3.78h-4.526v-2.379
			h11.516v2.379h-4.239v3.78c0,0.821,0.109,1.586,0.33,2.291c0.219,0.707,0.615,1.434,1.188,2.178
			c0.61,0.783,1.24,1.527,1.891,2.234c0.649,0.706,1.403,1.471,2.262,2.291l-1.918,1.891c-0.765-0.763-1.457-1.475-2.077-2.134
			c-0.621-0.658-1.218-1.331-1.79-2.02c-0.286-0.344-0.535-0.673-0.745-0.987c-0.21-0.315-0.363-0.617-0.458-0.902H78.977z
			 M95.275,77.549h-2.777V62.996H89.49V76.26h-2.779V51.683h2.779v8.851h3.008v-9.396h2.777V77.549z"/>
		<path fill="#FFFFFF" d="M122.574,71.619v2.405H98.341v-2.405h6.043v-6.388c-0.857-0.554-1.542-1.236-2.047-2.049
			c-0.507-0.812-0.759-1.742-0.759-2.793v-1.374c0-0.993,0.233-1.887,0.701-2.678c0.468-0.794,1.107-1.471,1.92-2.034
			c0.812-0.563,1.756-0.993,2.834-1.29c1.079-0.295,2.222-0.443,3.424-0.443c1.203,0,2.345,0.148,3.424,0.443
			c1.078,0.297,2.023,0.727,2.835,1.29c0.813,0.563,1.452,1.24,1.92,2.034c0.467,0.791,0.701,1.685,0.701,2.678v1.374
			c0,1.051-0.254,1.981-0.759,2.793c-0.506,0.813-1.189,1.495-2.048,2.049v6.388H122.574z M110.457,55.033
			c-0.82,0-1.599,0.097-2.334,0.287c-0.735,0.191-1.385,0.463-1.947,0.816c-0.565,0.353-1.009,0.787-1.333,1.303
			s-0.487,1.089-0.487,1.719v1.088c0,0.632,0.163,1.204,0.487,1.719c0.324,0.517,0.768,0.951,1.333,1.304
			c0.563,0.354,1.212,0.626,1.947,0.816c0.735,0.191,1.514,0.287,2.334,0.287c0.821,0,1.6-0.096,2.334-0.287
			c0.735-0.19,1.386-0.462,1.948-0.816c0.563-0.353,1.008-0.787,1.333-1.304c0.324-0.515,0.487-1.087,0.487-1.719v-1.088
			c0-0.63-0.163-1.203-0.487-1.719c-0.325-0.516-0.77-0.95-1.333-1.303c-0.563-0.354-1.213-0.625-1.948-0.816
			C112.057,55.13,111.278,55.033,110.457,55.033z M110.457,66.807c-1.146,0-2.234-0.134-3.265-0.4v5.213h6.53v-5.213
			C112.652,66.673,111.564,66.807,110.457,66.807z"/>
	</g>
	<g>
		<path fill="#FFFFFF" d="M72.178,44.119l-1.801-1.441c0.841-0.626,1.604-1.32,2.29-2.08s1.264-1.626,1.73-2.6
			c0.467-0.973,0.807-2.07,1.02-3.29c0.214-1.22,0.273-2.603,0.181-4.15h2.56c0.026,0.894,0.003,1.74-0.07,2.54
			c-0.073,0.8-0.183,1.567-0.33,2.3c0.521,1.44,1.2,2.7,2.04,3.78c0.841,1.08,1.887,2.047,3.141,2.9l-1.66,1.679
			c-1.934-1.36-3.447-3.08-4.54-5.16c-0.507,1.133-1.144,2.153-1.91,3.061C74.061,42.564,73.178,43.385,72.178,44.119z
			 M88.598,38.178h-2.94v9.82h-2.479v-18.54h2.479v6.6h2.94V38.178z"/>
		<path fill="#FFFFFF" d="M99.257,37.218c0,1.08-0.116,2.037-0.35,2.87c-0.233,0.833-0.563,1.537-0.99,2.109
			c-0.427,0.574-0.937,1.007-1.53,1.3c-0.593,0.293-1.257,0.439-1.989,0.439c-0.733,0-1.397-0.146-1.99-0.439
			c-0.594-0.293-1.104-0.727-1.53-1.3c-0.427-0.572-0.757-1.276-0.99-2.109c-0.233-0.833-0.35-1.79-0.35-2.87s0.116-2.037,0.35-2.87
			c0.233-0.833,0.563-1.537,0.99-2.11s0.937-1.007,1.53-1.3c0.593-0.293,1.257-0.44,1.99-0.44c0.732,0,1.396,0.147,1.989,0.44
			c0.594,0.293,1.104,0.727,1.53,1.3s0.757,1.277,0.99,2.11C99.141,35.182,99.257,36.138,99.257,37.218z M96.737,37.218
			c0-1.44-0.203-2.566-0.61-3.38c-0.406-0.813-0.983-1.22-1.729-1.22c-0.747,0-1.324,0.407-1.73,1.22s-0.609,1.94-0.609,3.38
			s0.203,2.567,0.609,3.38c0.406,0.813,0.983,1.22,1.73,1.22c0.746,0,1.323-0.406,1.729-1.22
			C96.534,39.786,96.737,38.658,96.737,37.218z M101.857,29.458h2.479v18.54h-2.479V29.458z"/>
		<path fill="#FFFFFF" d="M123.897,43.258v2.061h-17.16v-2.061H123.897z M117.377,36.258c0.427,0.253,0.854,0.497,1.28,0.73
			s0.87,0.463,1.33,0.69c0.46,0.227,0.946,0.447,1.46,0.66c0.513,0.213,1.069,0.427,1.67,0.64l-1.601,1.84
			c-1.093-0.426-2.116-0.903-3.069-1.43c-0.954-0.526-1.87-1.117-2.75-1.77c-0.96,0.707-1.994,1.347-3.101,1.92
			c-1.106,0.574-2.246,1.081-3.42,1.52l-1.479-1.88c1.187-0.387,2.307-0.843,3.359-1.37c1.054-0.526,2-1.07,2.841-1.63
			c0.84-0.56,1.55-1.11,2.13-1.65s0.982-1.03,1.21-1.47c-0.427,0.027-0.98,0.04-1.66,0.04s-1.4,0-2.16,0h-3.92v-2.1h5.479
			c0.854,0,1.747,0,2.681,0c0.933,0,1.979-0.013,3.14-0.04c-0.267,1-0.693,1.94-1.28,2.82S118.217,35.485,117.377,36.258z"/>
	</g>
</g>
<g>
</g>
<g>
</g>
<g>
</g>
<g>
</g>
<g>
</g>
<g>
</g>
</svg>
