<?xml version="1.0" encoding="utf-8"?>
<!-- Generator: Adobe Illustrator 16.0.0, SVG Export Plug-In . SVG Version: 6.00 Build 0)  -->
<!DOCTYPE svg PUBLIC "-//W3C//DTD SVG 1.1//EN" "http://www.w3.org/Graphics/SVG/1.1/DTD/svg11.dtd">
<svg version="1.1" id="Layer_1" xmlns="http://www.w3.org/2000/svg" xmlns:xlink="http://www.w3.org/1999/xlink" x="0px" y="0px"
	 width="26.842px" height="32.271px" viewBox="0 0 26.842 32.271" enable-background="new 0 0 26.842 32.271" xml:space="preserve">
<g>
	<g>
		<path fill="#FFFFFF" d="M6.511,10.99c-1.729,0-3.133-1.462-3.133-3.258s1.405-3.257,3.133-3.257c1.729,0,3.136,1.461,3.136,3.257
			S8.24,10.99,6.511,10.99z M6.511,5.906c-0.909,0-1.648,0.818-1.648,1.825s0.739,1.826,1.648,1.826c0.91,0,1.65-0.819,1.65-1.826
			S7.421,5.906,6.511,5.906z"/>
	</g>
	<g>
		<path fill="#FFFFFF" d="M4.901,32.136c-1.62,0-2.295-1.136-2.352-1.898L2.546,15.846c0-0.395,0.332-0.716,0.743-0.716
			s0.743,0.321,0.743,0.716v14.34c0.023,0.152,0.172,0.521,0.869,0.521c0.696,0,0.844-0.409,0.871-0.652l-0.003-8.28
			c0-0.396,0.332-0.716,0.743-0.716c0.411,0,0.743,0.32,0.743,0.716v8.343C7.196,30.956,6.522,32.136,4.901,32.136z"/>
	</g>
	<g>
		<g>
			<path fill="#FFFFFF" d="M9.98,23.014c-0.411,0-0.743-0.32-0.743-0.716s0.332-0.716,0.743-0.716c0.566,0,1.125-0.782,1.364-1.258
				c0.017-1.818,0.037-5.169,0-5.775c-0.035-0.262-0.886-1.037-2.141-1.65c-0.498-0.242-1.874-0.352-2.691-0.352
				c-0.762,0-2.167,0.096-2.69,0.353c-1.254,0.613-2.105,1.388-2.141,1.651c-0.037,0.605-0.017,3.956,0,5.775
				c0.238,0.474,0.797,1.257,1.364,1.257c0.411,0,0.743,0.32,0.743,0.716s-0.332,0.716-0.743,0.716
				c-1.767,0-2.692-2.024-2.792-2.257c-0.037-0.085-0.056-0.176-0.057-0.268c-0.002-0.214-0.048-5.196,0.001-6.023
				c0.08-1.34,2.279-2.516,2.952-2.844c1.01-0.493,3.124-0.507,3.362-0.507c0.238,0,2.354,0.014,3.363,0.507
				c0.671,0.329,2.87,1.504,2.952,2.843c0.049,0.828,0.003,5.811,0.001,6.024c-0.001,0.092-0.021,0.183-0.057,0.268
				C12.672,20.988,11.747,23.014,9.98,23.014z"/>
		</g>
		<g>
			<path fill="#FFFFFF" d="M8.124,32.136c-1.622,0-2.296-1.18-2.353-1.973c-0.028-0.396,0.281-0.736,0.689-0.765
				c0.402-0.021,0.764,0.271,0.793,0.664c0.025,0.232,0.174,0.643,0.87,0.643c0.697,0,0.846-0.367,0.872-0.587L8.992,15.846
				c0-0.395,0.332-0.716,0.743-0.716c0.41,0,0.743,0.321,0.743,0.716v14.34C10.418,31,9.744,32.136,8.124,32.136z"/>
		</g>
	</g>
</g>
<g>
	<path fill="none" stroke="#000000" stroke-width="2" stroke-linecap="round" stroke-linejoin="round" stroke-miterlimit="10" d="
		M11.521,1.951"/>
</g>
<g>
	<path fill="#FFFFFF" d="M25.794,5.063H15.397c-0.271,0-0.529-0.128-0.695-0.346c-0.165-0.218-0.219-0.501-0.146-0.764
		c0.399-1.427,1.293-3.817,2.789-3.817h8.448c0.483,0,0.874,0.392,0.874,0.875v3.178C26.668,4.671,26.276,5.063,25.794,5.063z
		 M16.622,3.314h8.297V1.885h-7.49C17.218,2.045,16.901,2.623,16.622,3.314z"/>
</g>
<g>
	<g>
		<g>
			<path fill="#FFFFFF" d="M22.858,24.24h-2.771c-0.377,0-0.684-0.32-0.684-0.717c0-0.396,0.307-0.716,0.684-0.716h2.771
				c0.377,0,0.683,0.32,0.683,0.716C23.541,23.919,23.235,24.24,22.858,24.24z"/>
		</g>
		<g>
			<path fill="#FFFFFF" d="M22.858,27.075h-2.771c-0.377,0-0.684-0.32-0.684-0.717c0-0.395,0.307-0.715,0.684-0.715h2.771
				c0.377,0,0.683,0.32,0.683,0.715C23.541,26.755,23.235,27.075,22.858,27.075z"/>
		</g>
		<g>
			<path fill="#FFFFFF" d="M22.858,29.914h-2.771c-0.377,0-0.684-0.32-0.684-0.716s0.307-0.716,0.684-0.716h2.771
				c0.377,0,0.683,0.32,0.683,0.716S23.235,29.914,22.858,29.914z"/>
		</g>
		<g>
			<path fill="#FFFFFF" d="M22.858,21.397h-2.771c-0.377,0-0.684-0.319-0.684-0.716c0-0.395,0.307-0.715,0.684-0.715h2.771
				c0.377,0,0.683,0.32,0.683,0.715C23.541,21.077,23.235,21.397,22.858,21.397z"/>
		</g>
		<g>
			<path fill="#FFFFFF" d="M22.858,18.561h-2.771c-0.377,0-0.684-0.32-0.684-0.716s0.307-0.716,0.684-0.716h2.771
				c0.377,0,0.683,0.32,0.683,0.716C23.541,18.24,23.235,18.561,22.858,18.561z"/>
		</g>
	</g>
	<g>
		<path fill="#FFFFFF" d="M23.146,15.735h-3.059c-0.377,0-0.684-0.319-0.684-0.715s0.307-0.716,0.684-0.716h3.059
			c0.377,0,0.684,0.32,0.684,0.716C23.828,15.415,23.522,15.735,23.146,15.735z"/>
	</g>
	<g>
		<path fill="#FFFFFF" d="M24.13,15.735h-4.043c-0.377,0-0.684-0.319-0.684-0.715s0.307-0.716,0.684-0.716h4.043
			c0.377,0,0.684,0.32,0.684,0.716S24.507,15.735,24.13,15.735z"/>
	</g>
	<g>
		<path fill="#FFFFFF" d="M22.858,6.97h-2.771c-0.377,0-0.684-0.32-0.684-0.715c0-0.396,0.307-0.716,0.684-0.716h2.771
			c0.377,0,0.683,0.319,0.683,0.716C23.541,6.65,23.235,6.97,22.858,6.97z"/>
	</g>
	<g>
		<path fill="#FFFFFF" d="M22.858,9.809h-2.771c-0.377,0-0.684-0.319-0.684-0.716c0-0.395,0.307-0.716,0.684-0.716h2.771
			c0.377,0,0.683,0.321,0.683,0.716S23.235,9.809,22.858,9.809z"/>
	</g>
	<g>
		<path fill="#FFFFFF" d="M22.858,12.646h-2.771c-0.377,0-0.684-0.319-0.684-0.716c0-0.395,0.307-0.715,0.684-0.715h2.771
			c0.377,0,0.683,0.32,0.683,0.715C23.541,12.326,23.235,12.646,22.858,12.646z"/>
	</g>
</g>
<g>
	<path fill="#FFFFFF" d="M25.919,31.757h-6.048c-0.396,0-0.716-0.321-0.716-0.716V4.474c0-0.396,0.32-0.716,0.716-0.716h6.048
		c0.396,0,0.716,0.32,0.716,0.716v26.567C26.635,31.436,26.313,31.757,25.919,31.757z M20.587,30.325h4.616V5.189h-4.616V30.325z"/>
</g>
</svg>
