<?xml version="1.0" encoding="utf-8"?>
<!-- Generator: Adobe Illustrator 16.0.0, SVG Export Plug-In . SVG Version: 6.00 Build 0)  -->
<!DOCTYPE svg PUBLIC "-//W3C//DTD SVG 1.1//EN" "http://www.w3.org/Graphics/SVG/1.1/DTD/svg11.dtd">
<svg version="1.1" id="Layer_1" xmlns="http://www.w3.org/2000/svg" xmlns:xlink="http://www.w3.org/1999/xlink" x="0px" y="0px"
	 width="24px" height="33.363px" viewBox="0 0 24 33.363" enable-background="new 0 0 24 33.363" xml:space="preserve">
<path fill="#FFFFFF" d="M9.236,17.085c0,0.569-0.527,1.03-1.18,1.03l0,0c-0.652,0-1.18-0.46-1.18-1.03v-2.022
	c0-0.568,0.528-1.03,1.18-1.03l0,0c0.653,0,1.18,0.461,1.18,1.03V17.085z"/>
<path fill="#FFFFFF" d="M17.254,17.085c0,0.568-0.527,1.029-1.179,1.029l0,0c-0.652,0-1.181-0.461-1.181-1.029v-2.021
	c0-0.569,0.528-1.03,1.181-1.03l0,0c0.651,0,1.179,0.461,1.179,1.03V17.085z"/>
<g>
	<g>
		<path fill="#FFFFFF" d="M3.218,32.682c-0.441,0-0.798-0.358-0.798-0.799V30.02c0-0.44,0.357-0.798,0.798-0.798
			c0.44,0,0.798,0.357,0.798,0.798v1.863C4.016,32.323,3.658,32.682,3.218,32.682z"/>
	</g>
	<g>
		<path fill="#FFFFFF" d="M20.647,30.818H3.351c-1.047,0-1.685-0.431-2.035-0.791c-0.842-0.868-0.83-2.091-0.826-2.227V4.207
			c0-2.572,1.776-3.428,2.715-3.522c0.026-0.003,0.053-0.004,0.079-0.004h17.43c0.027,0,0.054,0.001,0.079,0.004
			c0.939,0.094,2.716,0.95,2.716,3.522v23.617c0.004,0.112,0.016,1.335-0.827,2.203C22.332,30.388,21.694,30.818,20.647,30.818z
			 M3.337,2.278C3.081,2.32,2.087,2.59,2.087,4.207v23.617c-0.003,0.208,0.06,0.771,0.381,1.096c0.2,0.203,0.489,0.302,0.883,0.302
			h17.296c0.395,0,0.684-0.099,0.884-0.302c0.32-0.324,0.383-0.888,0.381-1.077V4.207c0-1.654-1.052-1.898-1.248-1.929H3.337z"/>
	</g>
	<g>
		<path fill="#FFFFFF" d="M20.781,32.682c-0.441,0-0.799-0.358-0.799-0.799V30.02c0-0.44,0.357-0.798,0.799-0.798
			c0.44,0,0.798,0.357,0.798,0.798v1.863C21.579,32.323,21.222,32.682,20.781,32.682z"/>
	</g>
	<g>
		<path fill="#FFFFFF" d="M11.999,30.818c-0.44,0-0.798-0.357-0.798-0.799V1.479c0-0.441,0.357-0.798,0.798-0.798
			c0.441,0,0.798,0.357,0.798,0.798v28.54C12.797,30.461,12.44,30.818,11.999,30.818z"/>
	</g>
</g>
<g>
</g>
<g>
</g>
<g>
</g>
<g>
</g>
<g>
</g>
<g>
</g>
</svg>
