<?xml version="1.0" encoding="utf-8"?>
<!-- Generator: Adobe Illustrator 16.0.0, SVG Export Plug-In . SVG Version: 6.00 Build 0)  -->
<!DOCTYPE svg PUBLIC "-//W3C//DTD SVG 1.1//EN" "http://www.w3.org/Graphics/SVG/1.1/DTD/svg11.dtd">
<svg version="1.1" id="Layer_1" xmlns="http://www.w3.org/2000/svg" xmlns:xlink="http://www.w3.org/1999/xlink" x="0px" y="0px"
	 width="35.75px" height="30.75px" viewBox="0 0 35.75 30.75" enable-background="new 0 0 35.75 30.75" xml:space="preserve">
<g>
	<path fill="#FFFFFF" d="M12.558,14.847c-3.998,0-7.25-3.252-7.25-7.25c0-3.997,3.252-7.249,7.25-7.249s7.249,3.252,7.249,7.249
		C19.807,11.595,16.556,14.847,12.558,14.847z M12.558,2.348c-2.895,0-5.25,2.354-5.25,5.249s2.355,5.25,5.25,5.25
		s5.25-2.355,5.25-5.25S15.453,2.348,12.558,2.348z"/>
</g>
<g>
	<path fill="#FFFFFF" d="M23.698,30.29H1.417c-0.543,0-0.987-0.434-1-0.977c-0.006-0.251-0.105-6.185,3.152-9.992
		c1.896-2.217,4.416-3.081,8.988-3.081c4.571,0,7.092,0.864,8.987,3.082c3.257,3.807,3.158,9.74,3.152,9.991
		C24.685,29.856,24.241,30.29,23.698,30.29z M2.45,28.29h20.214c-0.113-1.708-0.597-5.28-2.639-7.668
		c-1.257-1.471-2.945-2.382-7.468-2.382c-4.523,0-6.211,0.911-7.468,2.381C3.047,23.008,2.563,26.582,2.45,28.29z"/>
</g>
<g>
	<g>
		<path fill="#FFFFFF" d="M29.142,21.812c-3.449,0-6.255-2.806-6.255-6.254s2.806-6.254,6.255-6.254
			c3.448,0,6.254,2.806,6.254,6.254S32.59,21.812,29.142,21.812z M29.142,11.303c-2.346,0-4.255,1.909-4.255,4.254
			c0,2.346,1.909,4.254,4.255,4.254s4.254-1.908,4.254-4.254C33.396,13.212,31.488,11.303,29.142,11.303z"/>
	</g>
	<g>
		<path fill="#FFFFFF" d="M32.848,12.834c-0.014,0-0.026,0-0.039-0.001c-0.552-0.021-0.982-0.485-0.961-1.038l0.133-3.456
			c0.005-0.073,0.117-1.406-0.672-2.271c-0.501-0.548-1.302-0.827-2.382-0.827c-0.887,0-1.554,0.234-1.98,0.697
			c-0.747,0.81-0.651,2.124-0.65,2.137c0.044,0.548-0.362,1.032-0.91,1.079c-0.546,0.045-1.031-0.354-1.082-0.901
			c-0.008-0.088-0.184-2.184,1.157-3.655c0.822-0.901,1.988-1.357,3.466-1.357c1.677,0,2.981,0.504,3.877,1.498
			c1.384,1.537,1.18,3.653,1.17,3.743l-0.128,3.39C33.826,12.411,33.382,12.834,32.848,12.834z"/>
	</g>
	<g>
		<g>
			<circle fill="#FFFFFF" cx="29.236" cy="15" r="1.115"/>
		</g>
		<g>
			<path fill="#FFFFFF" d="M29.236,17.327c-0.276,0-0.5-0.224-0.5-0.5v-1.454c0-0.276,0.224-0.5,0.5-0.5s0.5,0.224,0.5,0.5v1.454
				C29.736,17.103,29.512,17.327,29.236,17.327z"/>
		</g>
	</g>
</g>
<g>
</g>
<g>
</g>
<g>
</g>
<g>
</g>
<g>
</g>
<g>
</g>
</svg>
