<?xml version="1.0" encoding="utf-8"?>
<!-- Generator: Adobe Illustrator 16.0.0, SVG Export Plug-In . SVG Version: 6.00 Build 0)  -->
<!DOCTYPE svg PUBLIC "-//W3C//DTD SVG 1.1//EN" "http://www.w3.org/Graphics/SVG/1.1/DTD/svg11.dtd">
<svg version="1.1" id="Layer_1" xmlns="http://www.w3.org/2000/svg" xmlns:xlink="http://www.w3.org/1999/xlink" x="0px" y="0px"
	 width="34.5px" height="31px" viewBox="0 0 34.5 31" enable-background="new 0 0 34.5 31" xml:space="preserve">
<g>
	<g>
		<g>
			<path fill="#FFFFFF" d="M31.753,6.333c-0.332,0-0.6-0.243-0.6-0.544V3.582c0-0.3,0.269-0.543,0.6-0.543s0.6,0.243,0.6,0.543
				v2.208C32.354,6.09,32.085,6.333,31.753,6.333z"/>
		</g>
	</g>
	<g>
		<g>
			<path fill="#FFFFFF" d="M29.385,6.333c-0.332,0-0.6-0.243-0.6-0.544V2.456c0-0.301,0.268-0.544,0.6-0.544
				c0.332,0,0.6,0.243,0.6,0.544v3.333C29.985,6.09,29.717,6.333,29.385,6.333z"/>
		</g>
	</g>
	<g>
		<g>
			<g>
				<path fill="#FFFFFF" d="M22.15,6.333c-0.332,0-0.6-0.243-0.6-0.544V3.582c0-0.3,0.269-0.543,0.6-0.543s0.6,0.243,0.6,0.543
					v2.208C22.75,6.09,22.482,6.333,22.15,6.333z"/>
			</g>
		</g>
		<g>
			<g>
				<path fill="#FFFFFF" d="M24.529,6.333c-0.332,0-0.6-0.243-0.6-0.544V3.582c0-0.3,0.268-0.543,0.6-0.543
					c0.332,0,0.6,0.243,0.6,0.543v2.208C25.129,6.09,24.861,6.333,24.529,6.333z"/>
			</g>
		</g>
		<g>
			<g>
				<path fill="#FFFFFF" d="M26.91,6.333c-0.332,0-0.6-0.243-0.6-0.544V3.582c0-0.3,0.269-0.543,0.6-0.543s0.6,0.243,0.6,0.543
					v2.208C27.51,6.09,27.241,6.333,26.91,6.333z"/>
			</g>
		</g>
		<g>
			<g>
				<path fill="#FFFFFF" d="M19.768,6.333c-0.332,0-0.6-0.243-0.6-0.544V3.582c0-0.3,0.269-0.543,0.6-0.543s0.6,0.243,0.6,0.543
					v2.208C20.368,6.09,20.1,6.333,19.768,6.333z"/>
			</g>
		</g>
		<g>
			<g>
				<path fill="#FFFFFF" d="M17.388,6.333c-0.332,0-0.6-0.243-0.6-0.544V3.582c0-0.3,0.269-0.543,0.6-0.543s0.6,0.243,0.6,0.543
					v2.208C17.988,6.09,17.72,6.333,17.388,6.333z"/>
			</g>
		</g>
	</g>
	<g>
		<g>
			<path fill="#FFFFFF" d="M15.019,6.333c-0.332,0-0.6-0.243-0.6-0.544V3.354c0-0.3,0.269-0.544,0.6-0.544
				c0.332,0,0.601,0.244,0.601,0.544v2.436C15.62,6.09,15.351,6.333,15.019,6.333z"/>
		</g>
	</g>
	<g>
		<g>
			<path fill="#FFFFFF" d="M15.019,6.333c-0.332,0-0.6-0.243-0.6-0.544v-3.22c0-0.3,0.269-0.543,0.6-0.543
				c0.332,0,0.601,0.243,0.601,0.543v3.22C15.62,6.09,15.351,6.333,15.019,6.333z"/>
		</g>
	</g>
	<g>
		<g>
			<path fill="#FFFFFF" d="M7.669,6.333c-0.332,0-0.6-0.243-0.6-0.544V3.582c0-0.3,0.269-0.543,0.6-0.543
				c0.332,0,0.6,0.243,0.6,0.543v2.208C8.27,6.09,8.001,6.333,7.669,6.333z"/>
		</g>
	</g>
	<g>
		<g>
			<path fill="#FFFFFF" d="M10.05,6.333c-0.332,0-0.601-0.243-0.601-0.544V3.582c0-0.3,0.269-0.543,0.601-0.543
				c0.332,0,0.6,0.243,0.6,0.543v2.208C10.65,6.09,10.381,6.333,10.05,6.333z"/>
		</g>
	</g>
	<g>
		<g>
			<path fill="#FFFFFF" d="M12.429,6.333c-0.332,0-0.6-0.243-0.6-0.544V3.582c0-0.3,0.269-0.543,0.6-0.543
				c0.332,0,0.601,0.243,0.601,0.543v2.208C13.029,6.09,12.761,6.333,12.429,6.333z"/>
		</g>
	</g>
	<g>
		<g>
			<path fill="#FFFFFF" d="M5.289,6.333c-0.332,0-0.6-0.243-0.6-0.544V3.582c0-0.3,0.269-0.543,0.6-0.543s0.6,0.243,0.6,0.543v2.208
				C5.889,6.09,5.62,6.333,5.289,6.333z"/>
		</g>
	</g>
	<g>
		<g>
			<path fill="#FFFFFF" d="M2.907,6.333c-0.332,0-0.6-0.243-0.6-0.544V3.582c0-0.3,0.269-0.543,0.6-0.543s0.6,0.243,0.6,0.543v2.208
				C3.507,6.09,3.238,6.333,2.907,6.333z"/>
		</g>
	</g>
</g>
<g>
	<g>
		<path fill="#FFFFFF" d="M33.674,6.781H0.986c-0.332,0-0.6-0.269-0.6-0.6V1.109c0-0.332,0.268-0.6,0.6-0.6h32.688
			c0.332,0,0.6,0.269,0.6,0.6v5.072C34.274,6.512,34.006,6.781,33.674,6.781z M1.586,5.581h31.488V1.709H1.586V5.581z"/>
	</g>
</g>
<g>
	<g>
		<path fill="#FFFFFF" d="M5.818,8.702H3.382c-0.332,0-0.6-0.268-0.6-0.6c0-0.332,0.269-0.6,0.6-0.6h2.437
			c0.332,0,0.6,0.269,0.6,0.6C6.418,8.434,6.15,8.702,5.818,8.702z"/>
	</g>
</g>
<g>
	<g>
		<path fill="#FFFFFF" d="M5.818,11.07H2.139c-0.332,0-0.6-0.269-0.6-0.601c0-0.332,0.268-0.6,0.6-0.6h3.679
			c0.332,0,0.6,0.269,0.6,0.6C6.418,10.802,6.15,11.07,5.818,11.07z"/>
	</g>
</g>
<g>
	<g>
		<path fill="#FFFFFF" d="M5.818,18.305H3.382c-0.332,0-0.6-0.268-0.6-0.6c0-0.332,0.269-0.6,0.6-0.6h2.437
			c0.332,0,0.6,0.269,0.6,0.6C6.418,18.037,6.15,18.305,5.818,18.305z"/>
	</g>
	<g>
		<path fill="#FFFFFF" d="M5.818,15.926H3.382c-0.332,0-0.6-0.269-0.6-0.6c0-0.332,0.269-0.6,0.6-0.6h2.437
			c0.332,0,0.6,0.268,0.6,0.6C6.418,15.658,6.15,15.926,5.818,15.926z"/>
	</g>
	<g>
		<path fill="#FFFFFF" d="M5.818,13.545H3.382c-0.332,0-0.6-0.268-0.6-0.6c0-0.332,0.269-0.6,0.6-0.6h2.437
			c0.332,0,0.6,0.269,0.6,0.6C6.418,13.277,6.15,13.545,5.818,13.545z"/>
	</g>
	<g>
		<path fill="#FFFFFF" d="M5.818,20.687H3.382c-0.332,0-0.6-0.268-0.6-0.6c0-0.332,0.269-0.6,0.6-0.6h2.437
			c0.332,0,0.6,0.269,0.6,0.6C6.418,20.419,6.15,20.687,5.818,20.687z"/>
	</g>
	<g>
		<path fill="#FFFFFF" d="M5.818,23.067H3.382c-0.332,0-0.6-0.268-0.6-0.6c0-0.332,0.269-0.6,0.6-0.6h2.437
			c0.332,0,0.6,0.269,0.6,0.6C6.418,22.799,6.15,23.067,5.818,23.067z"/>
	</g>
</g>
<g>
	<path d="M5.818,25.436H3.13c-0.332,0-0.6-0.269-0.6-0.6c0-0.332,0.269-0.6,0.6-0.6h2.688c0.332,0,0.6,0.268,0.6,0.6
		C6.418,25.167,6.15,25.436,5.818,25.436z"/>
</g>
<g>
	<path fill="#FFFFFF" d="M5.818,25.436H2.265c-0.332,0-0.6-0.269-0.6-0.6c0-0.332,0.268-0.6,0.6-0.6h3.554
		c0.332,0,0.6,0.268,0.6,0.6C6.418,25.167,6.15,25.436,5.818,25.436z"/>
</g>
<g>
	<path d="M5.818,30.406H3.382c-0.332,0-0.6-0.269-0.6-0.6c0-0.332,0.269-0.6,0.6-0.6h2.437c0.332,0,0.6,0.268,0.6,0.6
		C6.418,30.137,6.15,30.406,5.818,30.406z"/>
</g>
<g>
	<path fill="#FFFFFF" d="M5.818,28.026H3.382c-0.332,0-0.6-0.269-0.6-0.6c0-0.332,0.269-0.6,0.6-0.6h2.437
		c0.332,0,0.6,0.268,0.6,0.6C6.418,27.758,6.15,28.026,5.818,28.026z"/>
</g>
<g>
	<g>
		<path fill="#FFFFFF" d="M6.058,30.406H0.986c-0.332,0-0.6-0.269-0.6-0.6V6.181c0-0.332,0.268-0.6,0.6-0.6h5.072
			c0.332,0,0.6,0.269,0.6,0.6v23.625C6.658,30.137,6.389,30.406,6.058,30.406z M1.586,29.206h3.871V6.781H1.586V29.206z"/>
	</g>
</g>
<g>
	<g>
		<path fill="#FFFFFF" d="M24.464,28.463c-0.115,0.021-0.238,0.002-0.358-0.059c-0.344-0.176-0.524-0.649-0.402-1.054l0.484-1.606
			c0.121-0.406,0.5-0.592,0.844-0.414c0.344,0.176,0.524,0.647,0.401,1.054l-0.483,1.605C24.87,28.254,24.682,28.425,24.464,28.463z
			"/>
	</g>
	<g>
		<path fill="#FFFFFF" d="M24.119,30.473c-0.601,0.104-1.134-0.046-1.327-0.113c-0.93-0.158-11.277-1.91-11.889-2.047
			c-0.866-0.198-1.667-1.1-2.254-2.545c-0.602-1.471-0.017-3.412,0.052-3.629c0.015-0.046,0.034-0.091,0.057-0.132l7.276-13.698
			c0.122-0.231,0.344-0.357,0.576-0.331l3.17,0.34c0.23,0.025,0.441,0.193,0.558,0.443c0.018,0.037,0.534,1.075,1.734,1.499
			c1.332,0.471,3.046-0.007,4.957-1.371c0.117-0.086,0.258-0.12,0.399-0.1l4.646,0.689c0.275,0.042,0.511,0.283,0.595,0.607
			l0.421,1.636c0.059,0.228,0.034,0.47-0.069,0.66l-0.13,0.241l0.588,0.079c0.234,0.031,0.446,0.211,0.556,0.471
			c0.111,0.26,0.102,0.561-0.021,0.792c-0.054,0.1-5.323,9.998-6.219,11.82c-1.697,3.452-2.529,4.197-3.007,4.456
			C24.565,30.363,24.337,30.435,24.119,30.473z M9.92,22.87c-0.127,0.444-0.364,1.607-0.094,2.27
			c0.436,1.07,0.922,1.527,1.231,1.597c0.475,0.107,7.979,1.385,11.879,2.044c0.039,0.006,0.079,0.018,0.118,0.033
			c0.002,0,0.623,0.228,1.126-0.044c0.179-0.099,0.89-0.666,2.466-3.876c0.736-1.494,4.235-8.088,5.651-10.752l-0.212-0.029
			l-6.716,12.422c-0.083,0.155-0.211,0.263-0.36,0.309l-1.415,0.425c-0.355,0.105-0.72-0.16-0.831-0.59
			c-0.11-0.429,0.082-0.862,0.43-0.967l1.184-0.356l7.359-13.615l-0.189-0.737l-3.974-0.589c-2.192,1.52-4.153,1.98-5.831,1.368
			c-1.228-0.449-1.969-1.367-2.313-1.901l-2.468-0.266L9.92,22.87z"/>
	</g>
	<g>
		<path fill="#FFFFFF" d="M22.669,14.976c-0.624,0.108-1.304,0.063-2.038-0.208c-0.978-0.363-1.435-1.093-1.647-1.642
			c-0.659-1.709,0.159-3.834,0.254-4.07c0.156-0.387,0.549-0.524,0.88-0.308c0.331,0.215,0.472,0.703,0.316,1.09
			c-0.172,0.431-0.586,1.849-0.258,2.697c0.082,0.209,0.249,0.513,0.758,0.701c3.105,1.143,5.144-3.533,5.164-3.581
			c0.163-0.381,0.559-0.51,0.886-0.286c0.327,0.223,0.461,0.714,0.299,1.095C27.202,10.66,25.55,14.475,22.669,14.976z"/>
	</g>
	<g>
		<path fill="#FFFFFF" d="M23,16.769c-0.902,0.156-1.911,0.08-3.028-0.344c-1.094-0.415-1.877-1.176-2.329-2.262
			c-0.916-2.201-0.045-4.901-0.007-5.014c0.132-0.401,0.516-0.574,0.856-0.384C18.832,8.952,19,9.429,18.869,9.83
			c-0.013,0.039-0.689,2.173-0.052,3.698c0.272,0.65,0.753,1.098,1.469,1.37c4.939,1.873,7.359-4.722,7.383-4.787
			c0.141-0.398,0.529-0.555,0.866-0.356c0.337,0.199,0.496,0.681,0.354,1.075C28.865,10.895,26.959,16.08,23,16.769z"/>
	</g>
</g>
<g>
</g>
<g>
</g>
<g>
</g>
<g>
</g>
<g>
</g>
<g>
</g>
</svg>
