<?xml version="1.0" encoding="utf-8"?>
<!-- Generator: Adobe Illustrator 16.0.0, SVG Export Plug-In . SVG Version: 6.00 Build 0)  -->
<!DOCTYPE svg PUBLIC "-//W3C//DTD SVG 1.1//EN" "http://www.w3.org/Graphics/SVG/1.1/DTD/svg11.dtd">
<svg version="1.1" id="Layer_1" xmlns="http://www.w3.org/2000/svg" xmlns:xlink="http://www.w3.org/1999/xlink" x="0px" y="0px"
	 width="56.75px" height="33.667px" viewBox="0 0 56.75 33.667" enable-background="new 0 0 56.75 33.667" xml:space="preserve">
<g>
	<g>
		<path fill="#FFFFFF" d="M52.518,33.497c-0.046,0-0.094-0.003-0.141-0.01l-21.788-3.079c-0.547-0.077-0.928-0.583-0.851-1.13
			s0.582-0.931,1.13-0.851l20.798,2.939l2.59-18.354c0.215-1.512,0.463-4.286,0.214-5.296c-0.194-0.556-2.266-1.968-4.515-3.087
			c-0.754,0.137-2.575,0.395-4.506,0.124c-1.935-0.274-3.59-1.023-4.269-1.364c-0.518,0.089-1.588,0.289-2.676,0.57
			c-0.534,0.14-1.081-0.182-1.219-0.717c-0.139-0.535,0.182-1.08,0.717-1.219c1.606-0.417,3.127-0.655,3.191-0.665
			c0.225-0.033,0.449,0.007,0.646,0.118c0.018,0.01,1.793,1,3.89,1.296c2.114,0.298,4.114-0.16,4.134-0.164
			c0.223-0.052,0.456-0.026,0.662,0.073c1.624,0.783,5.451,2.795,5.886,4.556c0.424,1.717-0.112,5.618-0.175,6.057l-2.729,19.343
			C53.437,33.136,53.008,33.497,52.518,33.497z"/>
	</g>
	<g>
		<path fill="#FFFFFF" d="M45.287,10.258c-0.235,0-0.479-0.017-0.731-0.053c-4.075-0.576-4.574-5.157-4.269-7.499
			c0.07-0.547,0.583-0.936,1.118-0.861c0.547,0.07,0.935,0.571,0.865,1.118c-0.025,0.196-0.573,4.818,2.564,5.261
			c3.227,0.46,4.197-4.303,4.206-4.351c0.109-0.542,0.635-0.893,1.178-0.783c0.542,0.109,0.893,0.637,0.783,1.178
			C50.566,6.428,48.83,10.258,45.287,10.258z"/>
	</g>
</g>
<g>
	<g>
		<path fill="#FFFFFF" d="M4.421,33.497c-0.49,0-0.918-0.36-0.989-0.86L0.703,13.292C0.64,12.854,0.104,8.954,0.528,7.236
			c0.435-1.761,4.261-3.772,5.886-4.556c0.206-0.098,0.439-0.124,0.66-0.073c0.02,0.004,2.037,0.461,4.136,0.165
			c2.096-0.297,3.871-1.286,3.889-1.296c0.195-0.11,0.422-0.152,0.646-0.118c0.064,0.01,1.584,0.248,3.191,0.665
			c0.535,0.139,0.855,0.684,0.717,1.219s-0.686,0.856-1.219,0.717c-1.087-0.282-2.158-0.481-2.675-0.57
			c-0.679,0.341-2.334,1.09-4.269,1.364C9.558,5.026,7.738,4.767,6.983,4.629c-2.248,1.119-4.32,2.532-4.516,3.095
			c-0.248,1.003,0,3.776,0.216,5.287l2.589,18.356l20.798-2.939c0.544-0.08,1.052,0.303,1.13,0.851
			c0.077,0.547-0.303,1.053-0.85,1.13L4.563,33.487C4.515,33.494,4.468,33.497,4.421,33.497z"/>
	</g>
	<g>
		<path fill="#FFFFFF" d="M11.652,10.258c-3.543,0-5.28-3.83-5.715-5.989C5.828,3.729,6.178,3.203,6.718,3.093
			c0.54-0.109,1.068,0.24,1.179,0.78c0.04,0.196,1.022,4.807,4.207,4.353c3.155-0.446,2.571-5.211,2.565-5.259
			c-0.071-0.548,0.315-1.05,0.862-1.121c0.544-0.073,1.05,0.314,1.121,0.862c0.305,2.342-0.194,6.922-4.269,7.499
			C12.132,10.241,11.887,10.258,11.652,10.258z"/>
	</g>
</g>
<g>
	<g>
		<g>
			<path fill-rule="evenodd" clip-rule="evenodd" fill="#FFFFFF" d="M44.336,11.831c0.271,0.367,0.464,0.751,0.62,1.152
				c0.442,1.148,0.62,2.338,0.586,3.565c-0.021,0.732-0.156,1.444-0.352,2.146c-0.009,0.037-0.023,0.072-0.04,0.116
				c-1.337-0.24-2.671-0.482-4.023-0.728c0.079-1.221,0.392-2.378,0.941-3.465C42.618,13.529,43.31,12.552,44.336,11.831z"/>
		</g>
	</g>
	<g>
		<g>
			<path fill-rule="evenodd" clip-rule="evenodd" fill="#FFFFFF" d="M45.526,18.88c0.812-0.86,1.747-1.493,2.816-1.933
				c1.063-0.436,2.164-0.688,3.337-0.592c-0.048,0.272-0.075,0.535-0.145,0.784c-0.26,0.925-0.733,1.737-1.292,2.507
				c-0.041,0.06-0.081,0.081-0.154,0.065c-1.487-0.271-2.976-0.54-4.463-0.81C45.603,18.9,45.58,18.894,45.526,18.88z"/>
		</g>
	</g>
	<g>
		<g>
			<path fill-rule="evenodd" clip-rule="evenodd" fill="#FFFFFF" d="M39.088,18.34c3.571,0.646,7.112,1.286,10.667,1.932
				c-0.129,0.202-0.264,0.382-0.425,0.526c-0.016,0.014-0.042,0.015-0.063,0.014c-0.021,0-0.043-0.006-0.065-0.011
				c-3.258-0.589-6.516-1.181-9.772-1.765c-0.09-0.017-0.137-0.059-0.167-0.158C39.212,18.706,39.151,18.536,39.088,18.34z"/>
		</g>
	</g>
	<g>
		<g>
			<path fill-rule="evenodd" clip-rule="evenodd" fill="#FFFFFF" d="M39.015,19.627c3.184,0.574,6.367,1.152,9.549,1.728
				c0.006,0.012,0.01,0.022,0.015,0.033c-0.128,0.101-0.254,0.204-0.383,0.303c-0.142,0.109-0.286,0.133-0.453,0.103
				c-2.746-0.504-5.493-0.998-8.241-1.493c-0.082-0.015-0.146-0.048-0.194-0.127c-0.101-0.175-0.205-0.347-0.31-0.518
				C39.004,19.646,39.009,19.636,39.015,19.627z"/>
		</g>
	</g>
	<g>
		<g>
			<path fill-rule="evenodd" clip-rule="evenodd" fill="#FFFFFF" d="M38.754,20.777c0.896,0.161,1.787,0.324,2.707,0.49
				c-0.067,0.44-0.133,0.878-0.202,1.333C40.24,22.28,39.44,21.63,38.754,20.777z"/>
		</g>
	</g>
	<g>
		<g>
			<path fill-rule="evenodd" clip-rule="evenodd" fill="#FFFFFF" d="M46.914,22.281c-1.092,0.52-2.233,0.809-3.45,0.713
				c0.048-0.265,0.087-0.522,0.143-0.774c0.033-0.15,0.099-0.292,0.135-0.441c0.024-0.092,0.069-0.094,0.146-0.078
				c0.596,0.108,1.189,0.216,1.783,0.323c0.376,0.068,0.753,0.136,1.129,0.205c0.038,0.007,0.075,0.013,0.113,0.021
				C46.913,22.258,46.913,22.269,46.914,22.281z"/>
		</g>
	</g>
	<g>
		<g>
			<path fill-rule="evenodd" clip-rule="evenodd" fill="#FFFFFF" d="M41.593,21.29c0.671,0.121,1.323,0.241,1.974,0.357
				c-0.097,0.229-0.853,0.99-1.228,1.233C41.996,22.402,41.789,21.861,41.593,21.29z"/>
		</g>
	</g>
</g>
<g>
	<g>
		<g>
			<path fill-rule="evenodd" clip-rule="evenodd" fill="#FFFFFF" d="M9.521,22.726c-0.094-0.25-0.177-0.477-0.271-0.733
				c0.756-0.146,1.48-0.282,2.206-0.421c-0.008-0.043-0.014-0.087-0.02-0.129c-0.294,0.005-0.588,0.007-0.881,0.017
				c-0.244,0.009-0.487,0.032-0.73,0.041c-0.846,0.029-0.846,0.028-1.085-0.896c1.132-0.188,2.26-0.373,3.388-0.561
				c-0.006-0.049-0.01-0.099-0.015-0.147c-2.021,0.084-4.041,0.167-6.088,0.251c0.064-0.315,0.159-0.509,0.515-0.567
				c1.971-0.328,3.936-0.687,5.903-1.035c0.121-0.021,0.24-0.053,0.36-0.08c-0.005-0.038-0.011-0.073-0.015-0.11
				c-0.607,0.02-1.211,0.038-1.874,0.061c0.156-0.365,0.279-0.69,0.438-0.997c0.044-0.085,0.192-0.137,0.302-0.158
				c0.502-0.1,1.007-0.18,1.512-0.271c0.107-0.021,0.216-0.057,0.322-0.086c-0.006-0.04-0.012-0.079-0.017-0.12
				c-0.597,0.021-1.191,0.041-1.788,0.062c0.051-0.621,0.204-0.784,0.781-0.847c0.994-0.107,1.987-0.217,2.98-0.321
				c0.195-0.021,0.389-0.041,0.582-0.041c1.171-0.006,1.489,0.744,1.174,1.708c-0.177,0.542-0.583,0.918-1.058,1.219
				c-0.13,0.081-0.265,0.156-0.409,0.239c1.024,0.531,1.146,1.451,0.3,2.343c-0.576,0.606-1.29,1.015-2.127,1.123
				c-1.401,0.178-2.809,0.313-4.216,0.462C9.645,22.735,9.598,22.728,9.521,22.726z M12.509,20.999
				c0.324-0.034,0.581-0.042,0.829-0.095c0.355-0.074,0.67-0.228,0.846-0.576c0.15-0.302,0.101-0.57-0.135-0.707
				c-0.233-0.135-0.919-0.039-1.007,0.156C12.865,20.161,12.703,20.552,12.509,20.999z M13.685,18.312
				c0.358-0.039,0.687-0.003,0.943-0.121c0.236-0.108,0.439-0.358,0.58-0.592c0.127-0.214,0.052-0.517-0.203-0.57
				c-0.244-0.049-0.637-0.031-0.759,0.12C13.993,17.468,13.875,17.895,13.685,18.312z"/>
		</g>
	</g>
	<g>
		<g>
			<path fill-rule="evenodd" clip-rule="evenodd" fill="#FFFFFF" d="M6.722,18.589c0.04-0.331,0.148-0.512,0.48-0.561
				c0.975-0.149,1.942-0.317,2.91-0.505c0.288-0.054,0.425,0.022,0.498,0.294c0.053,0.186,0.13,0.363,0.218,0.604
				C9.443,18.478,8.094,18.535,6.722,18.589z"/>
		</g>
	</g>
	<g>
		<g>
			<path fill-rule="evenodd" clip-rule="evenodd" fill="#FFFFFF" d="M5.355,21.708c0.051-0.364,0.206-0.527,0.557-0.582
				c0.887-0.136,1.767-0.322,2.727-0.504c-0.136,0.314-0.235,0.571-0.356,0.816c-0.03,0.063-0.126,0.122-0.195,0.128
				C7.18,21.617,6.275,21.66,5.355,21.708z"/>
		</g>
	</g>
	<g>
		<g>
			<path fill-rule="evenodd" clip-rule="evenodd" fill="#FFFFFF" d="M4.663,23.272c0.049-0.392,0.228-0.537,0.573-0.587
				c0.878-0.131,1.747-0.305,2.63-0.463c-0.058,0.594-0.183,0.724-0.708,0.78C6.335,23.091,5.513,23.181,4.663,23.272z"/>
		</g>
	</g>
	<g>
		<g>
			<path fill-rule="evenodd" clip-rule="evenodd" fill="#FFFFFF" d="M10.233,16.908c-0.965,0.042-1.891,0.08-2.825,0.118
				c0.034-0.401,0.231-0.532,0.579-0.55C8.496,16.448,9,16.374,9.507,16.319C10.089,16.257,10.089,16.257,10.233,16.908z"/>
		</g>
	</g>
</g>
<g>
	<g>
		<path fill-rule="evenodd" clip-rule="evenodd" fill="#FFFFFF" d="M22.758,13.425c-0.136,0.454-0.334,0.957-0.437,1.478
			c-0.229,1.151,0.507,2.021,1.674,2.051c0.735,0.016,1.419-0.203,2.108-0.399c3.938-1.116,7.874-2.233,11.81-3.351
			c0.039-0.009,0.078-0.012,0.125,0.017c-0.607,0.271-1.216,0.547-1.823,0.819c-3.685,1.647-7.368,3.299-11.056,4.938
			c-0.918,0.406-1.864,0.706-2.888,0.663c-0.857-0.035-1.629-0.62-1.802-1.375c-0.127-0.554-0.03-1.088,0.144-1.613
			c0.323-0.972,0.924-1.777,1.568-2.555C22.384,13.853,22.596,13.615,22.758,13.425z"/>
	</g>
</g>
<g>
	<g>
		<path fill="#FFFFFF" d="M39.503,30.417H17.498c-0.552,0-1-0.447-1-1L16.502,9.88c0-0.442,0.015-4.379,0.675-6.02
			c0.679-1.69,4.952-3.145,6.758-3.691c0.214-0.066,0.447-0.056,0.656,0.026c0.019,0.007,1.915,0.739,4.032,0.739
			c2.136,0,4.052-0.733,4.071-0.741c0.213-0.083,0.448-0.09,0.665-0.021c1.719,0.548,5.789,2.004,6.466,3.687
			c0.66,1.641,0.675,5.578,0.674,6.021l0.005,19.535C40.503,29.969,40.056,30.417,39.503,30.417z M18.498,28.417h20.005
			L38.498,9.881c0.001-1.528-0.141-4.309-0.529-5.275c-0.271-0.524-2.52-1.633-4.901-2.425c-0.728,0.242-2.492,0.753-4.445,0.753
			c-1.957,0-3.703-0.512-4.42-0.755c-2.504,0.79-4.88,1.904-5.175,2.439c-0.383,0.953-0.526,3.734-0.525,5.261L18.498,28.417z"/>
	</g>
	<g>
		<path fill="#FFFFFF" d="M28.5,8.458c-4.115,0-5.25-4.466-5.275-6.827c-0.006-0.552,0.436-1.003,0.987-1.01
			c0.558,0.041,1.005,0.436,1.013,0.986c0.003,0.198,0.107,4.851,3.275,4.851c3.232,0,3.554-4.847,3.557-4.896
			c0.032-0.551,0.484-0.971,1.057-0.94c0.551,0.033,0.972,0.506,0.939,1.057C33.916,4.024,32.578,8.458,28.5,8.458z"/>
	</g>
</g>
<g>
</g>
<g>
</g>
<g>
</g>
<g>
</g>
<g>
</g>
<g>
</g>
</svg>
