<?xml version="1.0" encoding="utf-8"?>
<!-- Generator: Adobe Illustrator 16.0.0, SVG Export Plug-In . SVG Version: 6.00 Build 0)  -->
<!DOCTYPE svg PUBLIC "-//W3C//DTD SVG 1.1//EN" "http://www.w3.org/Graphics/SVG/1.1/DTD/svg11.dtd">
<svg version="1.1" id="Layer_1" xmlns="http://www.w3.org/2000/svg" xmlns:xlink="http://www.w3.org/1999/xlink" x="0px" y="0px"
	 width="34px" height="29.156px" viewBox="0 0 34 29.156" enable-background="new 0 0 34 29.156" xml:space="preserve">
<g>
	<g>
		<path fill="#FFFFFF" d="M28.406,28.485c-0.64,0-1.279-0.244-1.768-0.732L3.826,4.941c-0.977-0.976-0.977-2.559,0-3.535
			c0.976-0.977,2.56-0.977,3.535,0l22.813,22.812c0.977,0.976,0.977,2.559,0,3.535C29.686,28.241,29.046,28.485,28.406,28.485z"/>
	</g>
	<g>
		<path fill="#FFFFFF" d="M5.594,28.485c-0.64,0-1.28-0.244-1.768-0.732c-0.977-0.977-0.977-2.559,0-3.535L26.639,1.406
			c0.977-0.977,2.559-0.977,3.535,0c0.977,0.976,0.977,2.559,0,3.535L7.361,27.753C6.874,28.241,6.233,28.485,5.594,28.485z"/>
	</g>
</g>
</svg>
