<?xml version="1.0" encoding="utf-8"?>
<!-- Generator: Adobe Illustrator 16.0.0, SVG Export Plug-In . SVG Version: 6.00 Build 0)  -->
<!DOCTYPE svg PUBLIC "-//W3C//DTD SVG 1.1//EN" "http://www.w3.org/Graphics/SVG/1.1/DTD/svg11.dtd">
<svg version="1.1" id="Layer_1" xmlns="http://www.w3.org/2000/svg" xmlns:xlink="http://www.w3.org/1999/xlink" x="0px" y="0px"
	 width="34.5px" height="32.644px" viewBox="0 0 34.5 32.644" enable-background="new 0 0 34.5 32.644" xml:space="preserve">
<g>
	<g>
		<path fill="#FFFFFF" d="M18.85,6.729c-1.599,0-2.879-0.479-3.805-1.424c-1.574-1.607-1.544-3.966-1.542-4.065
			c0.004-0.164,0.11-0.302,0.304-0.291c0.164,0.003,0.294,0.139,0.291,0.303c-0.001,0.022-0.024,2.215,1.376,3.641
			c0.81,0.825,1.945,1.243,3.376,1.243c4.578,0,4.745-4.696,4.75-4.896c0.004-0.164,0.116-0.292,0.304-0.29
			c0.164,0.004,0.295,0.141,0.291,0.305C24.192,1.308,24.001,6.729,18.85,6.729z"/>
	</g>
	<g>
		<g>
			<path fill="#FFFFFF" d="M27.25,27.014h-3.221c-0.411,0-0.744-0.333-0.744-0.743c0-0.411,0.333-0.744,0.744-0.744h2.474
				l-0.035-7.659c-0.001-0.411,0.33-0.745,0.741-0.747c0.001,0,0.002,0,0.003,0c0.409,0,0.742,0.33,0.743,0.74l0.039,8.406
				c0,0.197-0.077,0.389-0.218,0.528C27.637,26.935,27.448,27.014,27.25,27.014z"/>
		</g>
		<g>
			<path fill="#FFFFFF" d="M30.558,13.363c-0.1,0-0.198-0.02-0.292-0.06l-0.917-0.39c-0.378-0.161-0.554-0.597-0.394-0.975
				c0.161-0.378,0.598-0.554,0.976-0.394l0.218,0.092l2.331-5.825l-4.871-2.636l-4.474-1.195c-0.8,3.041-2.302,3.692-4.287,3.692
				c-1.984,0-3.486-0.651-4.285-3.692l-4.475,1.195l-4.87,2.636l0.929,2.322c0.152,0.381-0.033,0.814-0.414,0.967
				C5.35,9.254,4.918,9.068,4.766,8.688L3.591,5.75C3.451,5.4,3.596,5,3.928,4.82l5.529-2.993c0.051-0.028,0.105-0.05,0.163-0.064
				l5.303-1.416c0.197-0.054,0.409-0.022,0.585,0.087c0.174,0.108,0.296,0.284,0.336,0.485c0.653,3.268,1.849,3.268,3.004,3.268
				c1.156,0,2.352,0,3.005-3.268c0.041-0.201,0.163-0.377,0.337-0.485c0.175-0.109,0.388-0.14,0.585-0.087l5.302,1.416
				c0.058,0.015,0.111,0.036,0.163,0.064l5.53,2.993C34.102,5,34.246,5.4,34.105,5.75l-2.858,7.145
				c-0.074,0.186-0.22,0.333-0.404,0.411C30.751,13.344,30.653,13.363,30.558,13.363z"/>
		</g>
		<g>
			<path fill="#FFFFFF" d="M18.964,2.847c-2.573,0-4.208-1.125-4.276-1.173c-0.336-0.235-0.418-0.699-0.182-1.036
				c0.234-0.336,0.696-0.417,1.033-0.184c0.024,0.017,1.354,0.905,3.425,0.905c2.038,0,3.104-0.835,3.148-0.871
				c0.319-0.254,0.786-0.208,1.044,0.108s0.216,0.779-0.099,1.04C22.998,1.687,21.57,2.847,18.964,2.847z"/>
		</g>
	</g>
</g>
<g>
	<g>
		<g>
			<path fill="#FFFFFF" d="M15.651,12.164c-1.636,0-2.945-0.491-3.893-1.458c-1.61-1.645-1.579-4.057-1.578-4.159
				c0.004-0.164,0.113-0.304,0.304-0.291c0.164,0.003,0.295,0.139,0.292,0.303c0,0.023-0.024,2.271,1.411,3.734
				c0.831,0.846,1.996,1.275,3.464,1.275c4.687,0,4.869-4.817,4.873-5.022c0.005-0.164,0.151-0.287,0.306-0.29
				c0.164,0.004,0.294,0.14,0.29,0.304C21.118,6.617,20.922,12.164,15.651,12.164z"/>
		</g>
		<g>
			<g>
				<path fill="#FFFFFF" d="M24.053,32.322H7.249c-0.197,0-0.388-0.08-0.527-0.22s-0.217-0.33-0.216-0.528l0.063-13.955
					l-2.335,0.992c-0.186,0.078-0.393,0.08-0.577,0.002c-0.185-0.076-0.331-0.225-0.405-0.41l-2.857-7.145
					c-0.141-0.351,0.004-0.75,0.336-0.93l5.53-2.994c0.052-0.028,0.106-0.05,0.162-0.064l5.304-1.416
					c0.196-0.053,0.409-0.022,0.584,0.087c0.175,0.108,0.297,0.284,0.336,0.486c0.654,3.267,1.85,3.267,3.005,3.267
					c1.156,0,2.351,0,3.005-3.267c0.041-0.202,0.163-0.377,0.337-0.486c0.174-0.108,0.387-0.14,0.584-0.087l5.303,1.416
					c0.057,0.015,0.111,0.037,0.162,0.064l5.53,2.994c0.332,0.18,0.478,0.58,0.337,0.93l-2.858,7.145
					c-0.074,0.186-0.221,0.334-0.405,0.41c-0.185,0.078-0.392,0.076-0.577-0.002l-2.334-0.992l0.063,13.955
					c0.001,0.198-0.077,0.389-0.217,0.528S24.25,32.322,24.053,32.322z M7.996,30.833h15.31l-0.064-14.338
					c-0.001-0.25,0.123-0.484,0.332-0.623c0.209-0.139,0.472-0.164,0.702-0.065l2.676,1.138l2.33-5.824L24.41,8.483l-4.474-1.194
					c-0.8,3.041-2.301,3.692-4.286,3.692s-3.486-0.651-4.285-3.692L6.891,8.483l-4.87,2.637l2.329,5.825l2.676-1.138
					c0.231-0.098,0.495-0.073,0.703,0.065c0.208,0.138,0.333,0.372,0.332,0.623L7.996,30.833z"/>
			</g>
			<g>
				<path fill="#FFFFFF" d="M15.767,8.153c-2.572,0-4.208-1.124-4.276-1.172c-0.337-0.236-0.418-0.699-0.183-1.036
					c0.234-0.336,0.696-0.418,1.033-0.185c0.024,0.017,1.354,0.905,3.426,0.905c2.038,0,3.104-0.834,3.147-0.87
					c0.319-0.254,0.787-0.208,1.044,0.108c0.259,0.316,0.216,0.779-0.099,1.04C19.801,6.994,18.373,8.153,15.767,8.153z"/>
			</g>
		</g>
	</g>
</g>
<g>
</g>
<g>
</g>
<g>
</g>
<g>
</g>
<g>
</g>
<g>
</g>
</svg>
